<svg id="visual" viewBox="0 0 900 600" width="900" height="600" xmlns="http://www.w3.org/2000/svg" xmlns:xlink="http://www.w3.org/1999/xlink" version="1.1"><g><g transform="translate(869 508)"><path d="M88.7 -30C100.4 7.4 85.5 52.2 56.3 72.1C27.2 92 -16.2 86.9 -46.6 64.7C-77.1 42.4 -94.8 2.9 -84.9 -31.9C-74.9 -66.7 -37.5 -96.8 0.5 -96.9C38.5 -97.1 76.9 -67.3 88.7 -30Z" fill="#F7760E"></path></g><g transform="translate(730 149)"><path d="M56.8 -18.5C65.5 8.3 58.8 40 38.8 54.9C18.8 69.8 -14.5 67.9 -36.1 51.7C-57.6 35.6 -67.3 5.3 -59.3 -20.5C-51.3 -46.3 -25.7 -67.6 -0.8 -67.3C24.1 -67.1 48.1 -45.3 56.8 -18.5Z" fill="#F7760E"></path></g><g transform="translate(237 243)"><path d="M73.4 -23.1C84.4 10 75.2 50.4 47.8 71.8C20.3 93.2 -25.4 95.5 -53.2 74.9C-81 54.3 -90.9 10.8 -79.1 -23.5C-67.2 -57.8 -33.6 -82.9 -1.2 -82.5C31.2 -82.1 62.4 -56.3 73.4 -23.1Z" fill="#F7760E"></path></g><g transform="translate(408 16)"><path d="M65.8 -24.5C73 1 58.3 30.5 36.5 45.1C14.7 59.8 -14.1 59.5 -34.1 45.4C-54 31.2 -65 3.3 -57.8 -22.1C-50.6 -47.4 -25.3 -70.2 2 -70.8C29.3 -71.5 58.5 -50 65.8 -24.5Z" fill="#F7760E"></path></g></g></svg>