<svg xmlns="http://www.w3.org/2000/svg" xml:space="preserve" id="businessteam" x="0" y="0" version="1.1" viewBox="0 0 52 52">
  <g fill="none" stroke="#000000" stroke-linecap="round" stroke-linejoin="round" stroke-miterlimit="10" stroke-width="2" class="colorStroke000000 svgStroke">
    <path d="M38.395 40.106h8.196A3.41 3.41 0 0 1 50 43.515V50.5H34.986v-6.985a3.41 3.41 0 0 1 3.41-3.41z" fill="#4db6ac" class="color000000 svgShape"></path>
    <circle cx="42.493" cy="33.259" r="3.5" fill="#4db6ac" class="color000000 svgShape"></circle>
    <g fill="#4db6ac" class="color000000 svgShape">
      <path d="M5.41 40.106h8.195a3.41 3.41 0 0 1 3.41 3.409V50.5H2v-6.985a3.41 3.41 0 0 1 3.41-3.41z" fill="#4db6ac" class="color000000 svgShape"></path>
      <circle cx="9.507" cy="33.259" r="3.5" fill="#4db6ac" class="color000000 svgShape"></circle>
    </g>
    <g fill="#4db6ac" class="color000000 svgShape">
      <path d="M21.902 11.846h8.196a3.41 3.41 0 0 1 3.409 3.41v6.985H18.493v-6.985a3.41 3.41 0 0 1 3.41-3.41z" fill="#4db6ac" class="color000000 svgShape"></path>
      <circle cx="26" cy="5" r="3.5" fill="#4db6ac" class="color000000 svgShape"></circle>
    </g>
    <g fill="#4db6ac" class="color000000 svgShape">
      <circle cx="26" cy="34.625" r="8.375" fill="#4db6ac" class="color000000 svgShape"></circle>
      <path d="M28.298 32.327c0-1.268-1.03-2.289-2.298-2.289s-2.298 1.02-2.298 2.289A2.3 2.3 0 0 0 26 34.625M23.702 36.923c0 1.259 1.03 2.289 2.298 2.289s2.298-1.03 2.298-2.289A2.3 2.3 0 0 0 26 34.625M26 39.212v1.163M26 28.875v1.163" fill="#4db6ac" class="color000000 svgShape"></path>
    </g>
  </g>
</svg>
