<svg xmlns="http://www.w3.org/2000/svg" viewBox="0 0 64 64" id="CustomerSupport">
  <path fill="#4db6ac" d="M63.8,41.61,61,39.5v-.71a2.22,2.22,0,0,0-2-2.19V34.14a26.65,26.65,0,0,0-5.44-16.22l-.12-.18c0-.13,0-.26.05-.4a2.78,2.78,0,0,0-.71-2c-.31-.33-.63-.66-1-1a28,28,0,0,0-40.54,1,2.81,2.81,0,0,0-.66,2.41l-.13.18A26.74,26.74,0,0,0,5,34.14V36.6a2.22,2.22,0,0,0-2,2.19v.71L.2,41.61A.52.52,0,0,0,0,42V52.42a.47.47,0,0,0,.2.39L3,54.92v.71a2.23,2.23,0,0,0,2.22,2.22h4a2.22,2.22,0,0,0,2.21-2.22V38.79a2.2,2.2,0,0,0-2.21-2.2H8.55V34.14a23.17,23.17,0,0,1,4.73-14.09l0-.05h0a2.79,2.79,0,0,0,2.06-.92,22.47,22.47,0,0,1,32.47-.79l.75.79a2.76,2.76,0,0,0,1.93.91.75.75,0,0,0,.15,0l0,.05a23.22,23.22,0,0,1,4.72,14.1v2.45h-.66a2.2,2.2,0,0,0-2.21,2.2V55.63a2.22,2.22,0,0,0,2.21,2.22h4A2.23,2.23,0,0,0,61,55.63v-.71l2.79-2.11a.45.45,0,0,0,.2-.39V42A.49.49,0,0,0,63.8,41.61ZM3,53.69,1,52.17V42.25l2-1.52ZM9.22,37.57a1.23,1.23,0,0,1,1.23,1.22V55.63a1.23,1.23,0,0,1-1.23,1.23h-4A1.23,1.23,0,0,1,4,55.63V38.79a1.23,1.23,0,0,1,1.23-1.22h4ZM7.56,34.14v2.45H6V34.14a25.71,25.71,0,0,1,5-15.33,2.87,2.87,0,0,0,.4.46,3,3,0,0,0,.82.51A24.16,24.16,0,0,0,7.56,34.14ZM50.59,19a1.75,1.75,0,0,1-1.25-.58c-.26-.28-.52-.56-.79-.82A23.25,23.25,0,0,0,32,10.75a23.53,23.53,0,0,0-17.34,7.67,1.87,1.87,0,0,1-2.55.12A1.81,1.81,0,0,1,12,16,27.15,27.15,0,0,1,32,7.14,26.82,26.82,0,0,1,51.1,15c.32.31.62.63.92,1a1.8,1.8,0,0,1-.13,2.55A1.73,1.73,0,0,1,50.59,19Zm1.15.77a2.61,2.61,0,0,0,.81-.5,2.87,2.87,0,0,0,.4-.46,25.66,25.66,0,0,1,5,15.33v2.45H56.44V34.14A24.27,24.27,0,0,0,51.74,19.77ZM60,55.63a1.23,1.23,0,0,1-1.23,1.23h-4a1.23,1.23,0,0,1-1.23-1.23V38.79a1.23,1.23,0,0,1,1.23-1.22h4A1.23,1.23,0,0,1,60,38.79Zm3-3.46-2,1.52v-13l2,1.52Z" class="color4e5293 svgShape"></path>
  <polygon fill="#cddddc" points="3 40.73 3 53.69 .98 52.17 .98 42.25 3 40.73" class="colorcdd5dd svgShape"></polygon>
  <polygon fill="#cddddc" points="63.02 42.25 63.02 52.17 61.01 53.69 61.01 40.73 63.02 42.25" class="colorcdd5dd svgShape"></polygon>
  <polygon fill="#b2c9c7" points="63.02 42.25 63.02 52.17 61.01 53.69 61.01 52.96 62.01 52.17 62.01 42.25 61.01 41.46 61.01 40.73 63.02 42.25" class="colorb6c4cd svgShape"></polygon>
  <path fill="#a5d0cc" d="M60,38.79V55.63a1.23,1.23,0,0,1-1.23,1.23h-4a1.23,1.23,0,0,1-1.23-1.23V38.79a1.23,1.23,0,0,1,1.23-1.22h4A1.23,1.23,0,0,1,60,38.79Z" class="colord0b8a5 svgShape"></path>
  <polygon fill="#b2c9c7" points="1.99 42.25 1.99 52.17 3 52.96 3 53.69 .98 52.17 .98 42.25 3 40.73 3 41.46 1.99 42.25" class="colorb6c4cd svgShape"></polygon>
  <path fill="#a5d0cc" d="M10.45,38.79V55.63a1.23,1.23,0,0,1-1.23,1.23h-4A1.23,1.23,0,0,1,4,55.63V38.79a1.23,1.23,0,0,1,1.23-1.22h4A1.23,1.23,0,0,1,10.45,38.79Z" class="colord0b8a5 svgShape"></path>
  <path fill="#c4e2df" d="M10.45,38.79V55.63a1.23,1.23,0,0,1-1.23,1.23H8.41c.4,0,.73-.55.73-1.23V38.79c0-.67-.33-1.22-.73-1.22h.81A1.23,1.23,0,0,1,10.45,38.79Z" class="colore2cfc4 svgShape"></path>
  <path fill="#96bfbb" d="M6 56.86H5.22A1.23 1.23 0 0 1 4 55.63V38.79a1.23 1.23 0 0 1 1.23-1.22H6c-.41 0-.74.55-.74 1.22V55.63C5.29 56.31 5.62 56.86 6 56.86zM51.89 18.54a1.73 1.73 0 0 1-1.3.46 1.75 1.75 0 0 1-1.25-.58c-.26-.28-.52-.56-.79-.82A23.25 23.25 0 0 0 32 10.75a23.53 23.53 0 0 0-17.34 7.67 1.87 1.87 0 0 1-2.55.12A1.81 1.81 0 0 1 12 16 27.15 27.15 0 0 1 32 7.14 26.82 26.82 0 0 1 51.1 15c.32.31.62.63.92 1A1.8 1.8 0 0 1 51.89 18.54z" class="colorbfa796 svgShape"></path>
  <path fill="#c4e2df" d="M52.12,18.28a1.78,1.78,0,0,0-.45-1.36c-.28-.33-.59-.64-.89-1a26.25,26.25,0,0,0-38.44,1,1.77,1.77,0,0,0-.45,1.37A1.81,1.81,0,0,1,12,16,27.15,27.15,0,0,1,32,7.14,26.82,26.82,0,0,1,51.1,15c.32.31.62.63.92,1A1.8,1.8,0,0,1,52.12,18.28Z" class="colore2cfc4 svgShape"></path>
  <path fill="#a5d0cc" d="M52.12,18.28a1.38,1.38,0,0,1-.23.26,1.47,1.47,0,0,1-.37.26c-.24-.28-.49-.55-.74-.81A25.77,25.77,0,0,0,32,9.82a26,26,0,0,0-19.51,9,1.83,1.83,0,0,1-.38-.26,1.71,1.71,0,0,1-.22-.25,1.77,1.77,0,0,1,.45-1.37,26.25,26.25,0,0,1,38.44-1c.3.31.61.62.89,1A1.78,1.78,0,0,1,52.12,18.28Z" class="colord0b8a5 svgShape"></path>
  <path fill="#cddddc" d="M12.27 19.78A24.16 24.16 0 0 0 7.56 34.14v2.45H6V34.14a25.71 25.71 0 0 1 5-15.33 2.87 2.87 0 0 0 .4.46A3 3 0 0 0 12.27 19.78zM58 34.14v2.45H56.44V34.14a24.27 24.27 0 0 0-4.7-14.37 2.61 2.61 0 0 0 .81-.5 2.87 2.87 0 0 0 .4-.46A25.66 25.66 0 0 1 58 34.14z" class="colorcdd5dd svgShape"></path>
  <path fill="#4db6ac" d="M47.53,34.3H46.6a3.24,3.24,0,0,1-2.24-5.43l.65-.65a.5.5,0,0,0,0-.7L41.59,24.1a.5.5,0,0,0-.7,0l-.56.56a3.19,3.19,0,0,1-3.55.68,3.15,3.15,0,0,1-2-2.95v-.81a.5.5,0,0,0-.5-.49H29.48a.48.48,0,0,0-.49.49v.93a3,3,0,0,1-1.87,2.78l-.15.07a3.19,3.19,0,0,1-3.51-.7l-.57-.56a.49.49,0,0,0-.69,0l-3.41,3.42a.46.46,0,0,0-.15.34.49.49,0,0,0,.15.36l.65.65a3.24,3.24,0,0,1-2.26,5.43h-.92a.5.5,0,0,0-.5.5v4.83a.49.49,0,0,0,.5.49h.92a3.25,3.25,0,0,1,2.26,5.44l-.65.65a.48.48,0,0,0,0,.7l3.41,3.41a.47.47,0,0,0,.69,0l.66-.65A3.25,3.25,0,0,1,29,51.92v.92a.49.49,0,0,0,.49.5h4.83a.5.5,0,0,0,.5-.5v-.92a3.24,3.24,0,0,1,5.43-2.25l.65.65a.48.48,0,0,0,.7,0L45,46.91a.5.5,0,0,0,0-.7l-.65-.65a3.25,3.25,0,0,1,2.24-5.44h.93a.48.48,0,0,0,.49-.49V34.8A.49.49,0,0,0,47.53,34.3ZM47,39.14H46.6a4.24,4.24,0,0,0-2.94,7.12l.3.3-2.71,2.72L40.93,49a4.24,4.24,0,0,0-7.11,3v.43H30v-.43a4.24,4.24,0,0,0-7.12-3l-.3.31-2.72-2.72.31-.3a4.11,4.11,0,0,0,.79-4.54,4.06,4.06,0,0,0-3.75-2.58h-.43V35.29h.43a4.24,4.24,0,0,0,3-7.12l-.31-.31,2.72-2.71.21.21a4.21,4.21,0,0,0,4.58.91l.15-.06A4,4,0,0,0,30,22.51v-.43h3.85v.31a4.23,4.23,0,0,0,7.21,3l.22-.21L44,27.86l-.3.31a4.24,4.24,0,0,0,2.94,7.12H47Z" class="color4e5293 svgShape"></path>
  <path fill="#9bece5" d="M46.6,35.29a4.24,4.24,0,0,1-2.94-7.12l.3-.31-2.71-2.71-.22.21a4.23,4.23,0,0,1-7.21-3v-.31H30v.43a4,4,0,0,1-2.48,3.7l-.15.06a4.21,4.21,0,0,1-4.58-.91l-.21-.21-2.72,2.71.31.31a4.24,4.24,0,0,1-3,7.12h-.43v3.85h.43a4.06,4.06,0,0,1,3.75,2.58,4.11,4.11,0,0,1-.79,4.54l-.31.3,2.72,2.72.3-.31a4.24,4.24,0,0,1,7.12,3v.43h3.85v-.43a4.24,4.24,0,0,1,7.11-3l.32.31L44,46.56l-.3-.3a4.24,4.24,0,0,1,2.94-7.12H47V35.29ZM31.89,46.63a9.42,9.42,0,1,1,9.42-9.41A9.42,9.42,0,0,1,31.89,46.63Z" class="colorec9bae svgShape"></path>
  <path fill="#4db6ac" d="M31.89,27.8a9.42,9.42,0,1,0,9.42,9.42A9.42,9.42,0,0,0,31.89,27.8Zm0,17.85a8.44,8.44,0,1,1,8.44-8.43A8.44,8.44,0,0,1,31.89,45.65Z" class="color4e5293 svgShape"></path>
  <path fill="#4db6ac" d="M33.7,37.41a2.33,2.33,0,0,0-.58-.38c-.21-.1-.43-.18-.66-.27l-.66-.23a3.77,3.77,0,0,1-.57-.27,1.53,1.53,0,0,1-.41-.39,1,1,0,0,1-.15-.56,1.07,1.07,0,0,1,.07-.41.85.85,0,0,1,.25-.32,1.15,1.15,0,0,1,.43-.21,3,3,0,0,1,.65-.07,2.92,2.92,0,0,1,.61.07c.18.05.34.11.47.16l.35.16a.44.44,0,0,0,.19.07.08.08,0,0,0,.07,0,.13.13,0,0,0,.05-.07.37.37,0,0,0,0-.12,1.09,1.09,0,0,0,0-.19.76.76,0,0,0,0-.15.5.5,0,0,0,0-.12l0-.09a.17.17,0,0,0-.07-.08.71.71,0,0,0-.17-.11,1.34,1.34,0,0,0-.3-.12,2.75,2.75,0,0,0-.34-.1l-.35-.06.12-1.13a.19.19,0,0,0,0-.08.17.17,0,0,0-.06-.06.24.24,0,0,0-.12,0h-.39l-.11,0a.13.13,0,0,0-.05.06.14.14,0,0,0,0,.06l-.12,1.14a3.4,3.4,0,0,0-.92.19,2.17,2.17,0,0,0-.66.41,1.61,1.61,0,0,0-.39.57,2,2,0,0,0-.13.71,1.93,1.93,0,0,0,.16.8,1.69,1.69,0,0,0,.4.55,2.1,2.1,0,0,0,.57.38c.21.1.43.19.65.27l.65.23a3,3,0,0,1,.57.28,1.36,1.36,0,0,1,.4.39.88.88,0,0,1,.16.55,1,1,0,0,1-.42.86,2,2,0,0,1-1.22.32,2.86,2.86,0,0,1-.77-.09,2.73,2.73,0,0,1-.55-.18l-.36-.18a.51.51,0,0,0-.21-.08.15.15,0,0,0-.09,0,.13.13,0,0,0-.05.07.47.47,0,0,0,0,.14,1.15,1.15,0,0,0,0,.2,1.65,1.65,0,0,0,0,.27.42.42,0,0,0,.08.15.78.78,0,0,0,.19.13,1.81,1.81,0,0,0,.31.13l.41.12.51.09L30.92,42a.11.11,0,0,0,0,.08.17.17,0,0,0,.06.06l.12,0h.39a.18.18,0,0,0,.11,0,.08.08,0,0,0,0-.05.14.14,0,0,0,0-.06l.13-1.23a3.49,3.49,0,0,0,1-.19,2.24,2.24,0,0,0,.78-.42,1.92,1.92,0,0,0,.49-.64,2,2,0,0,0,.17-.82,1.75,1.75,0,0,0-.56-1.35Z" class="color4e5293 svgShape"></path>
  <path fill="#c4e2df" d="M53.56,38.79V55.63a1.23,1.23,0,0,0,1.23,1.23h.81c-.4,0-.73-.55-.73-1.23V38.79c0-.67.33-1.22.73-1.22h-.81A1.23,1.23,0,0,0,53.56,38.79Z" class="colore2cfc4 svgShape"></path>
  <path fill="#96bfbb" d="M58,56.86h.81A1.23,1.23,0,0,0,60,55.63V38.79a1.23,1.23,0,0,0-1.23-1.22H58c.41,0,.74.55.74,1.22V55.63C58.72,56.31,58.39,56.86,58,56.86Z" class="colorbfa796 svgShape"></path>
  <path fill="#b9f1ec" d="M31.89,26.65A10.56,10.56,0,1,0,42.45,37.22,10.56,10.56,0,0,0,31.89,26.65Zm0,20a9.42,9.42,0,1,1,9.42-9.41A9.42,9.42,0,0,1,31.89,46.63Z" class="colorf1b9c7 svgShape"></path>
  <path fill="#8cd9d2" d="M31.89,26.65A10.56,10.56,0,1,0,42.45,37.22,10.56,10.56,0,0,0,31.89,26.65Zm0,20a9.42,9.42,0,1,1,9.42-9.41A9.42,9.42,0,0,1,31.89,46.63Z" class="colord98c9f svgShape"></path>
</svg>
