<svg xmlns="http://www.w3.org/2000/svg" viewBox="0 0 64 64" id="Growth">
  <rect width="6" height="16" x="17" y="44" rx="2" ry="2" fill="#4db6ac" class="color000000 svgShape"></rect>
  <rect width="6" height="10" x="5" y="50" rx="2" ry="2" fill="#4db6ac" class="color000000 svgShape"></rect>
  <rect width="6" height="22" x="29" y="38" rx="2" ry="2" fill="#4db6ac" class="color000000 svgShape"></rect>
  <rect width="6" height="28" x="41" y="32" rx="2" ry="2" fill="#4db6ac" class="color000000 svgShape"></rect>
  <rect width="6" height="34" x="53" y="26" rx="2" ry="2" fill="#4db6ac" class="color000000 svgShape"></rect>
  <path d="M9.87 16.86a9 9 0 0 0 16.26 0 8.82 8.82 0 0 0 .81-2.86 8.14 8.14 0 0 0 .06-1 7.84 7.84 0 0 0-.1-1.29 8.22 8.22 0 0 0-.42-1.71 9 9 0 0 0-17 0 8.22 8.22 0 0 0-.42 1.71 2.3 2.3 0 0 0 0 .26A7 7 0 0 0 9 13a8.14 8.14 0 0 0 .06 1 8.82 8.82 0 0 0 .81 2.86zM18.5 14h-1a2.5 2.5 0 0 1-.5-4.95V8a1 1 0 0 1 2 0v1h1a1 1 0 0 1 0 2h-2.5a.5.5 0 0 0 0 1h1a2.5 2.5 0 0 1 .5 5v1a1 1 0 0 1-2 0v-1h-1a1 1 0 0 1 0-2h2.5a.5.5 0 0 0 0-1zm42.26-6.65-.15-.14a1 1 0 0 0-.54-.21H56a1 1 0 0 0 0 2h1.55l-5.29 5.2A65.64 65.64 0 0 1 6 33H4a1 1 0 0 0 0 2h3.14a67.52 67.52 0 0 0 46.52-19.38L59 10.38V12a1 1 0 0 0 2 0V8a1 1 0 0 0-.24-.65z" fill="#4db6ac" class="color000000 svgShape"></path>
</svg>
