<svg xmlns="http://www.w3.org/2000/svg" viewBox="0 0 100 100" id="promotion">
  <path fill="#cedfdd" d="M64,45.86a9.16,9.16,0,0,0,1.12-6.07,12.61,12.61,0,0,0-4.28-7.59C56.46,28.44,50.52,28,46.83,31Z" class="colorced9df svgShape"></path>
  <polygon fill="#65ecdf" points="37.31 80.03 30.89 87.42 69.3 93.92 75.87 86.35 37.31 80.03" class="colorec6568 svgShape"></polygon>
  <polygon fill="#4db6ac" points="30.13 20.38 20.82 62.64 36.21 76.02 76.76 60.92 30.13 20.38" class="color70c8f2 svgShape"></polygon>
  <path fill="#333333" d="M66.21,47.83A12.05,12.05,0,0,0,68,39.37,15.53,15.53,0,0,0,62.73,30c-5.58-4.85-13.41-5.16-18.17-1L30.19,16.51a1.48,1.48,0,0,0-2.42.8L18.15,61a1.41,1.41,0,0,0-.91.48l-9,10.33a1.48,1.48,0,0,0,.15,2.09l18.38,16a1.51,1.51,0,0,0,1,.36h.11a1.57,1.57,0,0,0,.66-.22l41.09,7,.25,0A1.46,1.46,0,0,0,71,96.49l8.87-10.2A1.47,1.47,0,0,0,79,83.86l-38.41-6.3L80.13,62.83a1.49,1.49,0,0,0,.46-2.51ZM18.5,64.54l16.15,14-7,8.09-16.15-14ZM30.89,87.42,37.31,80l38.56,6.32L69.3,93.92ZM20.82,62.64l9.31-42.26L76.76,60.92,36.21,76Zm40-30.44a12.61,12.61,0,0,1,4.28,7.59A9.16,9.16,0,0,1,64,45.86L46.83,31C50.52,28,56.46,28.44,60.79,32.2Z" class="color333333 svgShape"></path>
  <rect width="10.72" height="21.4" x="17.7" y="64.91" fill="#65ecdf" transform="rotate(-49 23.062 75.608)" class="colorec6568 svgShape"></rect>
  <path fill="#37feeb" d="M48.9,12.43a1.46,1.46,0,0,1,.44,1.3L49,15.87l1.9-1a1.5,1.5,0,0,1,1.38,0l1.92,1-.38-2.13a1.47,1.47,0,0,1,.41-1.32l1.53-1.53-2.14-.28a1.5,1.5,0,0,1-1.13-.8l-1-1.93-.94,1.95a1.5,1.5,0,0,1-1.11.82l-2.14.33Z" class="colorfecb37 svgShape"></path>
  <path fill="#333333" d="M46.29,14l-.69,4.33a1.46,1.46,0,0,0,.6,1.44,1.46,1.46,0,0,0,1.56.1l3.86-2.08,3.9,2a1.49,1.49,0,0,0,2.14-1.58l-.79-4.32L60,10.83a1.48,1.48,0,0,0-.85-2.52l-4.35-.59-2-3.91A1.46,1.46,0,0,0,51.46,3a1.5,1.5,0,0,0-1.32.84l-1.89,4-4.34.68a1.49,1.49,0,0,0-1.18,1A1.47,1.47,0,0,0,43.12,11Zm4.29-4.25.94-1.95,1,1.93a1.5,1.5,0,0,0,1.13.8l2.14.28-1.53,1.53a1.47,1.47,0,0,0-.41,1.32l.38,2.13-1.92-1a1.5,1.5,0,0,0-1.38,0l-1.9,1,.34-2.14a1.46,1.46,0,0,0-.44-1.3l-1.57-1.5,2.14-.33A1.5,1.5,0,0,0,50.58,9.78Z" class="color333333 svgShape"></path>
  <path fill="#37feeb" d="M74.26,12.62a1.46,1.46,0,0,1,.44,1.3l-.34,2.14,1.9-1a1.5,1.5,0,0,1,1.38,0l1.93,1-.39-2.13a1.49,1.49,0,0,1,.41-1.32L81.12,11,79,10.75a1.51,1.51,0,0,1-1.12-.8L76.88,8l-.94,2a1.48,1.48,0,0,1-1.11.82l-2.13.33Z" class="colorfecb37 svgShape"></path>
  <path fill="#333333" d="M71.65,14.22,71,18.55a1.46,1.46,0,0,0,.6,1.44,1.46,1.46,0,0,0,1.56.1L77,18l3.91,2a1.47,1.47,0,0,0,1.56-.13A1.49,1.49,0,0,0,83,18.42l-.79-4.31L85.34,11a1.48,1.48,0,0,0-.85-2.52l-4.34-.59L78.16,4a1.47,1.47,0,0,0-1.32-.81h0A1.47,1.47,0,0,0,75.51,4l-1.9,4-4.34.68a1.49,1.49,0,0,0-1.18,1,1.46,1.46,0,0,0,.39,1.51ZM75.94,10l.94-2,1,1.93a1.51,1.51,0,0,0,1.12.8l2.14.28-1.53,1.53a1.49,1.49,0,0,0-.41,1.32L79.57,16l-1.93-1a1.5,1.5,0,0,0-1.38,0l-1.9,1,.34-2.14a1.46,1.46,0,0,0-.44-1.3l-1.56-1.5,2.13-.33A1.48,1.48,0,0,0,75.94,10Z" class="color333333 svgShape"></path>
  <path fill="#37feeb" d="M84.18,32.78l-1-1.93-.93,1.95a1.5,1.5,0,0,1-1.11.82L79,34l1.57,1.5a1.49,1.49,0,0,1,.44,1.3l-.35,2.14,1.91-1a1.49,1.49,0,0,1,1.38,0l1.92,1-.39-2.12a1.5,1.5,0,0,1,.42-1.32l1.53-1.53-2.15-.29A1.47,1.47,0,0,1,84.18,32.78Z" class="colorfecb37 svgShape"></path>
  <path fill="#333333" d="M92,32.32a1.46,1.46,0,0,0-1.2-1l-4.35-.59-2-3.91a1.48,1.48,0,0,0-2.66,0l-1.9,3.95-4.33.68A1.48,1.48,0,0,0,74.81,34l3.17,3-.7,4.33a1.47,1.47,0,0,0,.61,1.44,1.41,1.41,0,0,0,.86.28,1.46,1.46,0,0,0,.7-.18l3.86-2.08,3.9,2a1.49,1.49,0,0,0,1.56-.13,1.47,1.47,0,0,0,.57-1.46l-.78-4.31,3.11-3.09A1.49,1.49,0,0,0,92,32.32Zm-6.1,3.07a1.5,1.5,0,0,0-.42,1.32l.39,2.12-1.92-1a1.49,1.49,0,0,0-1.38,0l-1.91,1L81,36.75a1.49,1.49,0,0,0-.44-1.3L79,34l2.14-.33a1.5,1.5,0,0,0,1.11-.82l.93-1.95,1,1.93a1.47,1.47,0,0,0,1.12.79l2.15.29Z" class="color333333 svgShape"></path>
</svg>
