<svg xmlns="http://www.w3.org/2000/svg" viewBox="0 0 200 200" id="SocialMediaAttraction">
  <path fill="#cfe8e6" d="m146.383 166.899-.003 1.768c-.004.246-.163.492-.489.68l-20.92 12.159.004-1.768 20.924-12.16c.322-.188.484-.433.484-.68z" class="colorcfdee8 svgShape"></path>
  <path fill="#dcf1ef" d="m124.977 179.737-.005 1.768-27.858-16.083.005-1.769z" class="colordce8f1 svgShape"></path>
  <path fill="#25b8aa" d="M145.899 167.579c.647-.377.647-.988-.008-1.367l-25.49-14.716c-.423-.246-1.012-.332-1.55-.26-.3.036-.583.123-.81.26l-1.835 1.066 27.856 16.084 1.837-1.067z" class="color255bb8 svgShape"></path>
  <path fill="#e7f7f6" d="m116.206 152.562-19.089 11.09 27.858 16.086 19.087-11.092z" class="colore7f1f7 svgShape"></path>
  <path fill="#c5fffa" d="M147.046 39.717c.501.29.909.995.907 1.572s-.412.81-.913.52c-.502-.29-.91-.995-.908-1.572.002-.576.412-.81.914-.52z" class="colorffdcc5 svgShape"></path>
  <path fill="#ffffff" d="M114.833 26.828c.002-.661.449-.917 1.006-.595l38.31 22.117c.557.322 1.001 1.093 1 1.754" class="colorffffff svgShape"></path>
  <path fill="#b2c9c7" d="m162.914 43.184-.261 94.105c0 1.136-.408 1.98-1.048 2.358l-6.169 3.579c.67-.408 1.077-1.222 1.077-2.386l.232-94.077c0-2.329-1.6-5.122-3.637-6.286l-36.257-20.95c-1.019-.583-1.968-.587-2.638-.21l6.217-3.632c.64-.378 1.571-.32 2.59.261l36.257 20.952c2.037 1.164 3.637 3.957 3.637 6.286z" class="colorc5d4dd svgShape"></path>
  <path fill="#dcf1ef" d="M160.322 66.125c.303-.175.577-.193.774-.081.196.112.324.353.325.701l.014 4.996c.002.696-.485 1.54-1.092 1.89-.601.348-1.092.068-1.094-.628l-.014-4.996c-.002-.69.485-1.535 1.087-1.882z" class="colordce8f1 svgShape"></path>
  <path fill="#ffffff" d="m158.414 63.372-.015-4.993c0-.69.482-1.54 1.087-1.885.307-.176.575-.183.774-.076l.812.475c-.2-.115-.475-.1-.774.076-.605.345-1.087 1.187-1.087 1.877l.015 5.001c0 .345.123.59.322.705l-.812-.467c-.2-.115-.322-.36-.322-.713zm2.68 2.673c-.198-.114-.466-.092-.773.077-.597.352-1.087 1.195-1.087 1.884l.015 4.994c0 .352.123.59.322.704l-.812-.467c-.2-.115-.322-.36-.322-.704l-.015-4.994c0-.697.49-1.54 1.087-1.884.307-.177.582-.192.774-.085l.812.475z" class="colorffffff svgShape"></path>
  <path fill="#dcf1ef" d="M160.296 56.966c.303-.175.577-.187.774-.076.196.112.324.348.325.696l.014 4.996c.002.702-.485 1.546-1.092 1.897-.601.347-1.092.067-1.094-.635l-.014-4.996c-.002-.69.486-1.535 1.087-1.882z" class="colordce8f1 svgShape"></path>
  <path fill="#546664" d="m153.146 40.484-36.27-20.962c-2-1.173-3.627-.24-3.627 2.107l-.267 94.063c0 2.321 1.6 5.148 3.627 6.321l36.27 20.936c2.027 1.173 3.654.212 3.654-2.107l.24-94.09c0-2.32-1.6-5.12-3.627-6.268zm-6.107-.773c.507.294.907.987.907 1.574 0 .587-.4.827-.907.533-.507-.293-.907-.986-.907-1.574 0-.586.427-.826.907-.533z" class="color545466 svgShape"></path>
  <path fill="#475655" d="M143.98 37.947c.502.29.91.995.908 1.572-.002.577-.412.81-.914.52-.501-.29-.909-.995-.907-1.571s.412-.81.913-.52zm-4.33-2.307c.391.226.724.803.723 1.272-.001.448-.337.64-.727.415l-9.29-5.364c-.39-.225-.723-.802-.721-1.25 0-.47.336-.661.727-.436l9.289 5.363zM122.988 25.51c.686.396 1.233 1.343 1.23 2.13-.002.789-.552 1.102-1.238.706-.023-.013-.045-.028-.068-.043-.636-.409-1.165-1.327-1.163-2.088.003-.761.535-1.067 1.171-.74.023.01.045.021.068.035z" class="color474756 svgShape"></path>
  <path fill="#85fdf3" d="m155.15 50.107-.072 27.695-.108 37.555-.036 15.08-.008 2.98c0 .663-.449.932-1.005.618l-15.252-8.8-23.065-13.314c-.557-.332-.996-1.113-.996-1.786v-.646l.054-19.737.053-18.32v-.448l.045-14.21v-.853l.036-15.485.036-13.61 9.447 5.455 30.87 17.826z" class="color85cdfd svgShape"></path>
  <path fill="#93fff6" d="m155.078 77.802-.108 37.555-40.21-59.436.036-15.485.036-13.609 9.447 5.454zM154.934 130.438l-.008 2.978c0 .664-.449.933-1.005.62l-15.252-8.802-24.007-35.482.053-18.32v-.448l40.22 59.454z" class="color93d4ff svgShape"></path>
  <path fill="#66fff0" d="m130.926 101.74-.034-38.62 10.185 5.918.033 38.62z" class="color66ccff svgShape"></path>
  <path fill="#e7f7f6" d="m119.754 29.651-12.443 7.229-5.063-2.923 12.44-7.231z" class="colore7f1f7 svgShape"></path>
  <path fill="#cfe8e6" d="m107.31 36.88-.004.48c-.004 1.604-1.138 2.256-2.534 1.45-1.402-.809-2.529-2.767-2.524-4.371v-.482l5.063 2.923z" class="colorcfdee8 svgShape"></path>
  <path fill="#e7f7f6" d="m129.887 35.501-12.443 7.229-5.063-2.923 12.44-7.231z" class="colore7f1f7 svgShape"></path>
  <path fill="#cfe8e6" d="m117.444 42.73-.005.48c-.004 1.604-1.138 2.257-2.535 1.45-1.401-.809-2.528-2.767-2.523-4.371v-.482l5.063 2.923z" class="colorcfdee8 svgShape"></path>
  <path fill="#e7f7f6" d="m140.02 41.352-12.443 7.228-5.063-2.923 12.44-7.23z" class="colore7f1f7 svgShape"></path>
  <path fill="#cfe8e6" d="m127.577 48.58-.005.48c-.004 1.604-1.139 2.257-2.535 1.45-1.401-.809-2.528-2.767-2.524-4.37l.001-.483 5.063 2.923z" class="colorcfdee8 svgShape"></path>
  <path fill="#e7f7f6" d="M150.153 47.202 137.71 54.43l-5.063-2.923 12.439-7.23z" class="colore7f1f7 svgShape"></path>
  <path fill="#cfe8e6" d="m137.71 54.43-.005.48c-.005 1.604-1.139 2.257-2.535 1.45-1.402-.808-2.528-2.766-2.524-4.37v-.483l5.064 2.923z" class="colorcfdee8 svgShape"></path>
  <path fill="#6cfff2" d="m124.821 32.576-12.444 7.229-5.062-2.923 12.439-7.231z" class="colorff6c85 svgShape"></path>
  <path fill="#3deadb" d="m112.377 39.805-.004.48c-.005 1.604-1.139 2.256-2.535 1.45-1.402-.809-2.528-2.767-2.524-4.371v-.482l5.063 2.923z" class="colorea3d5b svgShape"></path>
  <path fill="#6cfff2" d="m134.954 38.427-12.444 7.228-5.062-2.923 12.439-7.231z" class="colorff6c85 svgShape"></path>
  <path fill="#3deadb" d="m122.51 45.655-.004.48c-.005 1.604-1.139 2.257-2.535 1.45-1.402-.809-2.529-2.767-2.524-4.371v-.482l5.063 2.923z" class="colorea3d5b svgShape"></path>
  <path fill="#6cfff2" d="m145.086 44.277-12.443 7.228-5.063-2.923 12.44-7.23z" class="colorff6c85 svgShape"></path>
  <path fill="#3deadb" d="m132.643 51.505-.004.48c-.005 1.604-1.14 2.257-2.535 1.45-1.402-.808-2.529-2.767-2.524-4.37v-.483l5.063 2.923z" class="colorea3d5b svgShape"></path>
  <path fill="#6cfff2" d="m155.219 50.127-12.443 7.228-5.063-2.922 12.44-7.231z" class="colorff6c85 svgShape"></path>
  <path fill="#3deadb" d="m142.776 57.355-.005.48c-.004 1.604-1.138 2.257-2.534 1.451-1.402-.81-2.529-2.767-2.524-4.372v-.481l5.063 2.922z" class="colorea3d5b svgShape"></path>
  <path fill="#37c7b9" d="m124.868 102.693-6.594-3.832c4.995-2.883 9.046-9.9 9.03-15.64l6.593 3.832c.017 5.74-4.035 12.756-9.03 15.64z" class="color3765c7 svgShape"></path>
  <path fill="#93fff6" d="m133.897 87.053-6.593-3.832 6.004-3.467 6.594 3.832z" class="color93d4ff svgShape"></path>
  <path fill="#37c7b9" d="m110.486 110.996-6.593-3.832 14.381-8.303 6.594 3.832z" class="color3765c7 svgShape"></path>
  <path fill="#25b8aa" d="m110.506 117.896-6.594-3.832-.019-6.9 6.593 3.832z" class="color255bb8 svgShape"></path>
  <path fill="#13ab9d" d="M139.902 83.586c.027 9.544-6.71 21.211-15.015 26.007l-14.381 8.303-.02-6.9 14.382-8.303c4.994-2.884 9.046-9.9 9.03-15.64l6.004-3.467z" class="color1352ab svgShape"></path>
  <path fill="#3deadb" d="m124.658 77.416 6.594 3.832c1.627.946 2.637 2.954 2.645 5.805l-6.593-3.832c-.008-2.851-1.019-4.86-2.646-5.805z" class="colorea3d5b svgShape"></path>
  <path fill="#54fdee" d="m128.91 70.1 6.593 3.833c-2.74-1.593-6.534-1.372-10.714 1.04l-6.594-3.83c4.18-2.414 7.974-2.635 10.714-1.042z" class="colorfd546b svgShape"></path>
  <path fill="#3deadb" d="m110.427 90.176-6.593-3.831-.02-6.9 6.594 3.832z" class="colorea3d5b svgShape"></path>
  <path fill="#54fdee" d="m110.408 83.277-6.594-3.832 14.381-8.303 6.594 3.832z" class="colorfd546b svgShape"></path>
  <path fill="#29e2d2" d="M124.789 74.974c8.305-4.795 15.086-.935 15.113 8.612l-6.005 3.467c-.016-5.74-4.094-8.063-9.089-5.18l-14.38 8.303-.02-6.9 14.38-8.302z" class="colore22951 svgShape"></path>
  <path fill="#cfe8e6" d="m104.793 93.435-6.594-3.831-.03-6.9 6.594 3.832z" class="colorcfdee8 svgShape"></path>
  <path fill="#dcf1ef" d="m104.753 86.536-6.594-3.832 5.655-3.259 6.583 3.832z" class="colordce8f1 svgShape"></path>
  <path fill="#b2c9c7" d="m110.408 83.277.03 6.899-5.645 3.259-.03-6.899z" class="colorc5d4dd svgShape"></path>
  <path fill="#cfe8e6" d="m104.872 121.155-6.594-3.832-.03-6.9 6.594 3.832z" class="colorcfdee8 svgShape"></path>
  <path fill="#dcf1ef" d="m104.842 114.255-6.594-3.832 5.645-3.259 6.593 3.832z" class="colordce8f1 svgShape"></path>
  <path fill="#b2c9c7" d="m110.486 110.996.03 6.9-5.644 3.259-.03-6.9z" class="colorc5d4dd svgShape"></path>
  <g fill="#88fff5" class="colorffe088 svgShape">
    <path d="m81.147 130.091 7.379-12.218 1.481 2.935 5.395-5.341-5.157 9.917-2.09-3.65zM75.835 92.57l13.545-4.5-.78 3.194 7.571-.559-10.361 4.193.781-4.132z" fill="#000000" class="color000000 svgShape"></path>
  </g>
  <path fill="#7dfff4" d="m21.745 148.072-1.102-.641-4.423 2.554 1.102.641z" class="colorffcd7d svgShape"></path>
  <path fill="#50fff0" d="m13.752 155.679-1.102-.64-1.354 5.623 1.102.641zM15.941 146.582l-1.102-.641-1.354 5.623 1.103.64z" class="colorffc950 svgShape"></path>
  <path fill="#7dfff4" d="m14.588 152.204-1.103-.64-4.423 2.553 1.103.641z" class="colorffcd7d svgShape"></path>
  <path fill="#4bf9ea" d="m10.165 154.758 3.587.921-1.354 5.624 3.571-5.054 3.587.922-1.381-4.045 3.57-5.054-4.423 2.554-1.381-4.044-1.353 5.622z" class="colorf9b74b svgShape"></path>
  <path fill="#7dfff4" d="m34.734 113.481-1.102-.64-4.423 2.553 1.102.641z" class="colorffcd7d svgShape"></path>
  <path fill="#50fff0" d="m26.741 121.089-1.102-.641-1.354 5.624 1.103.64zM28.931 111.991l-1.103-.64-1.353 5.622 1.102.641z" class="colorffc950 svgShape"></path>
  <path fill="#7dfff4" d="m27.577 117.614-1.102-.641-4.423 2.554 1.102.64z" class="colorffcd7d svgShape"></path>
  <path fill="#4bf9ea" d="m23.154 120.167 3.587.922-1.353 5.623 3.57-5.054 3.587.922-1.381-4.045 3.57-5.054-4.423 2.554-1.38-4.044-1.354 5.623z" class="colorf9b74b svgShape"></path>
  <path fill="#29e2d2" d="M58.549 83.15c-.724 1.252-1.093 2.563-1.093 3.663.007 1.093.369 1.983 1.1 2.396l2.041 1.187c-.73-.412-1.093-1.303-1.1-2.396 0-1.1.37-2.41 1.093-3.663.724-1.26 1.68-2.222 2.628-2.773.898-.52 1.803-.666 2.512-.325l.152.086.036-.065c.724-1.252 1.672-2.222 2.628-2.772.941-.543 1.882-.68 2.613-.275l-1.998-1.166c-.007 0-.014-.007-.021-.014-.731-.413-1.687-.283-2.635.268-.956.55-1.904 1.52-2.628 2.772l-.03.058-.035-.022c-.731-.413-1.687-.282-2.635.268-.949.55-1.904 1.513-2.628 2.773z" class="colore22951 svgShape"></path>
  <path fill="#54fdee" d="M63.217 81.562c-.95.549-1.9 1.516-2.626 2.773-.728 1.255-1.095 2.563-1.092 3.662.004 1.094.367 1.986 1.1 2.398l.032.024 5.282 3.015 5.289-9.16c.727-1.256 1.085-2.564 1.082-3.658-.003-1.1-.372-1.982-1.104-2.394-.73-.417-1.684-.285-2.636.265-.952.55-1.903 1.517-2.629 2.774l-.036.064-.028-.027c-.73-.416-1.683-.285-2.634.264z" class="colorfd546b svgShape"></path>
  <path fill="#50fff0" d="M60.158 108.199c-3.18 1.836-5.742 6.279-5.732 9.927.01 3.654 2.59 5.128 5.77 3.293 1.088-.629 2.106-1.565 2.973-2.667l3.31-1.43-1.145-2.535c.387-1.113.6-2.246.597-3.303-.01-3.649-2.598-5.118-5.773-3.285z" class="colorffc950 svgShape"></path>
  <path fill="#ffffff" d="M63.286 112.215c-.574.331-1.04 1.136-1.036 1.795.004.609.517.893 1.044.588.574-.332 1.036-1.132 1.034-1.792-.002-.658-.467-.923-1.042-.591zm-2.838 1.638c-.575.332-1.037 1.133-1.035 1.79.002.795.674 1.018 1.401.318.29-.278.499-.635.603-1.023.27-1.004-.27-1.489-.969-1.085zm-2.84 1.64c-.574.331-1.037 1.136-1.033 1.794.005.61.518.894 1.044.588.573-.334 1.033-1.132 1.031-1.792-.001-.657-.467-.922-1.042-.59z" class="colorffffff svgShape"></path>
  <path fill="#88fff5" d="M52.52 117.02c.006 1.813.642 3.092 1.677 3.694l1.909 1.11c-1.036-.603-1.672-1.882-1.678-3.695-.014-3.654 2.55-8.093 5.73-9.933 1.597-.92 3.046-1.008 4.094-.4l-1.908-1.109c-1.042-.602-2.497-.52-4.093.406-3.18 1.834-5.745 6.28-5.732 9.926z" class="colorffe088 svgShape"></path>
  <path fill="#78eae0" d="M61.89 146.998c.006 1.644.58 2.799 1.52 3.34l1.839 1.07c-.94-.548-1.514-1.702-1.52-3.34-.013-3.308 2.316-7.333 5.193-8.997 1.448-.835 2.753-.913 3.706-.358l-1.84-1.07c-.946-.555-2.257-.477-3.706.359-2.877 1.663-5.206 5.688-5.193 8.996z" class="colord178ea svgShape"></path>
  <path fill="#85dfd7" d="M68.922 139.072c-2.878 1.662-5.203 5.689-5.194 8.996.01 3.303 2.35 4.636 5.228 2.975 2.874-1.66 5.199-5.687 5.19-8.99-.01-3.307-2.35-4.64-5.224-2.981z" class="colordf85de svgShape"></path>
  <path fill="#ffffff" d="M69.39 148.1a1.023 1.023 0 0 0-.466.798c-.003.3.207.423.467.274.265-.153.469-.505.468-.806 0-.304-.205-.42-.47-.266zm-3.368-2.75.112-.064.112-.066 3.986-2.3c.156-.09.155-.09.184-.279.054-.35.11-.698.168-1.049a.347.347 0 0 1 .052-.128c.439-.607.88-1.213 1.322-1.817a.362.362 0 0 1 .106-.102c.055-.032.108-.03.15.006.102.09.073.341-.068.535-.372.514-.746 1.024-1.116 1.538a.508.508 0 0 0-.084.184c-.084.49-.164.978-.242 1.467-.132.833-.26 1.665-.393 2.499-.018.11-.022.193.05.23.043.022.072.072.096.12.234.455-.134 1.202-.598 1.47l-3.66 2.106c-.138.08-.229.026-.23-.13a.468.468 0 0 1 .222-.397l3.678-2.125a.43.43 0 0 0 .223-.319c.016-.136-.05-.224-.162-.196a.725.725 0 0 0-.171.079c-1.132.651-2.264 1.306-3.397 1.959-.138.08-.167.07-.198-.066l-.314-1.457c-.08-.371-.163-.74-.24-1.113-.043-.206.04-.37.243-.487l.17-.098zm.115.878c.031.147.066.291.094.442.01.057.03.077.085.045a4.705 4.705 0 0 1 .282-.163c.058-.033.072-.074.062-.131-.045-.264-.088-.53-.134-.793-.004-.023-.03-.049-.047-.04-.076.041-.152.084-.23.13l-.195.112.083.398m3.985-1.773c.057-.338.109-.673.162-1.01.002-.014-.003-.027-.006-.054l-.172.1c-.076.043-.152.087-.228.134a.17.17 0 0 0-.048.082c-.048.345-.093.69-.142 1.06l.176-.101c.07-.04.136-.08.203-.121a.178.178 0 0 0 .055-.09m-.663.18c.034-.268.071-.54.11-.836l-.222.128a7.091 7.091 0 0 0-.226.134.215.215 0 0 0-.058.11c-.028.309-.05.615-.074.922-.005.06.014.07.059.044a2.931 2.931 0 0 1 .05-.03l.09-.05c.236-.137.234-.136.271-.422m-2.443 1.677a2.566 2.566 0 0 1 .132-.08c.05-.03.1-.057.15-.084a.195.195 0 0 0 .004-.002c.05-.03.07-.064.064-.124-.022-.26-.044-.522-.064-.785-.006-.086-.037-.112-.114-.067a3.045 3.045 0 0 1-.171.105l-.23.13c.024.162.045.31.068.454.02.133.048.262.065.397.01.069.032.093.096.056m2.643-.176c.059-.034.116-.068.173-.104a.17.17 0 0 0 .05-.08c.06-.354.115-.706.177-1.087l-.168.097a9.178 9.178 0 0 0-.212.125.153.153 0 0 0-.042.075c-.048.349-.094.698-.142 1.068l.164-.094m-3.187 1.641c.005.026.014.05.016.078.005.077.037.093.1.056a1.846 1.846 0 0 1 .111-.068c.053-.031.108-.06.167-.095-.01-.092-.019-.17-.03-.245-.033-.21-.07-.417-.1-.628-.009-.061-.033-.076-.088-.044a7.187 7.187 0 0 1-.127.075l-.21.12.161.751m1.82-3.125c.006.132.002.27.002.407.001.139.004.276.001.418-.001.07.02.084.075.053a4.035 4.035 0 0 1 .277-.16c.06-.035.08-.08.085-.152.018-.29.038-.58.064-.872.008-.084-.015-.093-.073-.06a3.655 3.655 0 0 1-.339.194c-.068.04-.096.085-.092.172m-1.208 2.596c.015.09.024.184.048.265.007.029.049.044.078.033a.777.777 0 0 0 .138-.075l.06-.035a.916.916 0 0 1 .013-.008l.003-.002c.048-.027.063-.062.058-.115-.026-.28-.05-.564-.077-.844-.002-.023-.029-.049-.045-.04a6.58 6.58 0 0 0-.202.112l-.171.1.097.609m.47-2.198c.026.274.05.55.074.825.004.054.028.066.077.038a8.113 8.113 0 0 1 .26-.15c.054-.031.072-.072.07-.134-.002-.142 0-.286-.001-.43 0-.14-.003-.278-.001-.419 0-.06-.013-.087-.07-.054a10.041 10.041 0 0 1-.342.198c-.056.031-.072.07-.067.126m1.475 1.448c.05-.029.104-.06.156-.092a.144.144 0 0 0 .045-.07c.05-.353.097-.705.147-1.077l-.19.108a4.357 4.357 0 0 0-.188.114c-.018.012-.044.082-.048.117l-.048.973.126-.073m-1.354-.12c.022.25.048.498.068.75.006.079.031.098.101.058a.366.366 0 0 0 .01-.007c.207-.128.182-.075.184-.318v-.319c0-.135-.005-.269 0-.407.002-.078-.022-.095-.08-.062a.91.91 0 0 1-.072.045l-.098.055c-.124.073-.125.074-.113.205m.624.022c0 .143.002.286 0 .43 0 .065.02.079.078.047l.1-.054c.131-.076.136-.114.155-.343.02-.246.035-.489.057-.736.005-.07-.014-.083-.065-.054a7.221 7.221 0 0 1-.256.148c-.052.03-.073.07-.071.132.003.142.001.286.002.43m-1.257 3.055a1.005 1.005 0 0 0-.466.809c.002.298.204.414.463.265.264-.152.471-.51.47-.807 0-.298-.208-.417-.467-.267z" class="colorffffff svgShape"></path>
  <path fill="#4db6ac" d="m31.35 93.724.024 8.426c0 .388.137.663.358.788l1.684.98c-.22-.132-.358-.4-.358-.795l-.024-8.42c-.006-.788.55-1.75 1.236-2.143l9.744-5.62c.347-.198.663-.216.89-.084l-1.684-.98c-.227-.13-.543-.113-.89.09l-9.744 5.614c-.687.394-1.242 1.356-1.236 2.144z" class="color7cdf82 svgShape"></path>
  <path fill="#acf9f2" d="m33.031 94.7.02 6.161.006 2.264c.003.785.56 1.102 1.248.708l9.743-5.618c.686-.397 1.242-1.357 1.24-2.142l-.003-.885-.02-7.54c-.003-.785-.563-1.101-1.248-.705L34.27 92.56c-.685.397-1.239 1.359-1.239 2.141z" class="coloracf9ac svgShape"></path>
  <path fill="#ffffff" d="M38.145 98.928a.453.453 0 0 0 .13-.12l3.408-4.537c.147-.192.146-.433-.002-.45l-3.421-.599a.203.203 0 0 0-.129.032.517.517 0 0 0-.238.405l.015 5.135c0 .16.114.205.237.134z" class="colorffffff svgShape"></path>
  <path fill="#7bfff4" d="m32.595 139.412.026 8.975c0 .413.146.706.381.84l1.794 1.043c-.236-.14-.382-.426-.382-.846l-.025-8.968c-.007-.84.585-1.864 1.316-2.284l10.38-5.986c.368-.21.705-.23.947-.09l-1.794-1.042c-.241-.14-.578-.121-.947.095l-10.38 5.98c-.73.42-1.322 1.444-1.316 2.283z" class="colorff7bba svgShape"></path>
  <path fill="#9ffff7" d="m34.386 140.452.021 6.562.006 2.412c.003.836.596 1.173 1.33.754l10.378-5.985c.73-.422 1.323-1.444 1.32-2.28l-.004-.943-.02-8.031c-.004-.836-.6-1.174-1.33-.751l-10.381 5.981c-.73.423-1.32 1.448-1.32 2.281z" class="colorff9fd1 svgShape"></path>
  <path fill="#ffffff" d="M43.508 138.233c.004 1.645-2.449 7.159-2.578 7.449-.13-.14-2.607-2.808-2.611-4.454-.005-1.647 1.153-3.654 2.586-4.48 1.434-.829 2.598-.163 2.603 1.485zm-2.59 3.237c.884-.51 1.599-1.744 1.596-2.76-.003-1.015-.722-1.425-1.606-.915-.884.51-1.599 1.748-1.596 2.764.003 1.016.722 1.422 1.606.911" class="colorffffff svgShape"></path>
  <path fill="#55dbce" d="M2 107.704c.007 1.844.651 3.139 1.705 3.746l2.063 1.2c-1.054-.615-1.698-1.91-1.705-3.746-.014-3.709 2.597-8.223 5.824-10.089 1.624-.936 3.087-1.024 4.155-.402l-2.063-1.2c-1.06-.621-2.531-.534-4.155.403C4.597 99.48 1.985 103.995 2 107.704z" class="color5576db svgShape"></path>
  <path fill="#25b8aa" d="M9.886 98.816c-3.227 1.863-5.834 6.38-5.824 10.088.01 3.704 2.635 5.2 5.863 3.336 3.223-1.861 5.83-6.377 5.82-10.08-.011-3.71-2.636-5.205-5.859-3.344z" class="color255bb8 svgShape"></path>
  <g fill="#ffffff" class="colorffffff svgShape">
    <path d="m7.847 105.338-.289 3.664-1.893.896.289-3.664zM11.006 100.19a.291.291 0 0 1 .368.098c.16.222.196.573.14.953-.058.381-.203.79-.386 1.191-.069.15-.145.303-.18.45-.033.146-.02.29.073.328.07.03.172-.007.268-.045.488-.189.993-.402 1.423-.388.186.004.362.06.43.233.068.174-.01.492-.21.685.154.055.285.234.248.466-.035.231-.235.505-.426.691.335.068.333.76-.308 1.124.211.297-.138.764-.563 1.082-.335.25-.622.489-.941.67-.238.133-.478.267-.715.38-.207.097-.41.178-.609.229-.332.086-.638.084-.954.117-.208.021-.42.06-.637.112l.24-3.051a.431.431 0 0 0 .035-.015c.196-.093.403-.355.515-.601.138-.302.192-.603.327-.905.166-.37.437-.706.662-1.058.438-.683.706-1.43.853-2.127.038-.176.083-.378.219-.522a.434.434 0 0 1 .128-.097z" fill="#000000" class="color000000 svgShape"></path>
  </g>
  <path fill="#e7f7f6" d="M57.422 57.604c-.543.313-.974 1.065-.972 1.677l.029 10.116c.001.618.435.87.978.557l7.689-4.439 4.039.946-.548-2.962 19.304-10.857c.538-.31.969-1.063.967-1.68l-.028-10.116c-.002-.613-.436-.866-.974-.555L57.422 57.604z" class="colore7f1f7 svgShape"></path>
  <path fill="#b2c9c7" d="m54.328 58.046.03 10.117c0 .308.106.527.286.632l2.121 1.226c-.18-.098-.285-.316-.285-.624l-.03-10.117c0-.61.428-1.362.97-1.678l30.486-17.315c.271-.15.512-.165.693-.06l-2.122-1.234c-.18-.105-.421-.09-.692.068L55.3 56.368c-.542.316-.97 1.068-.97 1.678z" class="colorc5d4dd svgShape"></path>
  <g fill="#4bf9ea" class="colorf9b74b svgShape">
    <path d="m58.86 61.752 1.635.42-.617 2.564 1.628-2.304 1.636.42-.63-1.844 1.628-2.305-2.017 1.165-.629-1.844-.617 2.563zM66.426 57.486l1.636.42-.617 2.564 1.627-2.305 1.636.421-.63-1.845 1.628-2.304-2.016 1.164-.63-1.843-.617 2.563zM73.992 53.219l1.636.421-.617 2.564 1.628-2.305 1.635.42-.629-1.844 1.627-2.304-2.016 1.164-.63-1.843-.617 2.563zM81.559 48.953l1.635.42-.617 2.564 1.628-2.304 1.635.42-.629-1.844 1.628-2.304-2.017 1.164-.63-1.844-.617 2.564z" fill="#000000" class="color000000 svgShape"></path>
  </g>
  <path fill="#4db6ac" d="M185.964 73.825c.399.23.715.783.714 1.233l-.02 7.437c-.002.455-.321.64-.72.41l-5.653-3.264-2.97.696.403-2.178-1.96-1.131c-.395-.229-.712-.781-.71-1.236l.02-7.437c.002-.45.32-.636.716-.408l10.18 5.878z" class="color7cdf82 svgShape"></path>
  <path fill="#30f1e0" d="M184.135 74.979c.335.193.669.534.924.976.257.442.386.902.385 1.29-.001.384-.13.698-.387.843l-.012.009-1.86 1.061-1.861-3.225c-.256-.442-.382-.902-.381-1.287.001-.387.13-.698.389-.843.257-.147.592-.1.928.093.335.194.67.534.925.977l.013.022.01-.01c.257-.146.592-.1.927.094z" class="colorf13047 svgShape"></path>
  <path fill="#ffffff" d="M179.91 72.873c.357.649.534 1.387.531 2.217-.001.588-.099 1.036-.291 1.346-.192.31-.463.473-.812.49-.35.015-.752-.108-1.207-.371a4.582 4.582 0 0 1-.689-.49 3.85 3.85 0 0 1-.56-.589l.389-.658c.218.3.5.548.844.747.382.221.685.266.91.136.224-.13.346-.434.364-.915-.272.156-.646.096-1.123-.18a3.298 3.298 0 0 1-1.346-1.545 2.444 2.444 0 0 1-.204-.967c.001-.347.077-.607.228-.781.152-.174.357-.258.619-.249.26.01.55.107.867.29.632.365 1.125.871 1.48 1.519zm-.85 1.075c.143-.064.216-.209.216-.436s-.068-.453-.207-.676a1.627 1.627 0 0 0-.577-.549c-.223-.128-.406-.164-.545-.106-.14.057-.211.204-.212.441 0 .238.07.468.208.689.14.22.326.399.558.533.227.131.413.166.558.104" class="colorffffff svgShape"></path>
  <path fill="#acf9f2" d="m188.238 74.15-.022 7.438c0 .227-.077.387-.21.464l-1.56.902c.133-.072.21-.232.21-.459l.023-7.438c0-.448-.316-1.001-.714-1.234l-10.181-5.878c-.2-.11-.376-.122-.509-.044l1.56-.908c.132-.077.31-.066.508.05l10.182 5.873c.398.233.713.786.713 1.234z" class="coloracf9ac svgShape"></path>
  <path fill="#2a3837" d="M182.994 182.912s-.148.75.031.991c.18.242.573.556 1.552.626.98.07 1.898 0 2.64-.319s1.666-.944 1.981-1.163c.315-.218 2.317-1.78 2.553-1.95.236-.17.783-.472.866-.594.083-.123.289-.809.136-1.045-.153-.236-2.112.861-2.112.861l-2.606 2.16-2.553 1.084-2.488-.669" class="color2a2a38 svgShape"></path>
  <path fill="#2a3837" d="M183.044 182.604c-.013-.091.503-.662 2.064-1.78 1.562-1.117 1.028-1.438 1.7-1.96.672-.522.617-.522 1.4-.142 0 0 1.4-.886 1.779-1.274s1.431-.901 2.15-.324c.72.577.657 2.47.617 2.61-.04.142-.134.482-1.051.87-.918.387-3.06 2.664-4.35 2.925-1.288.261-1.636.498-3.194.3 0 0-1.449-.195-1.115-1.225zm-10.683-3.535s-.228.73-.076.989c.152.26.51.614 1.476.79.966.174 1.886.203 2.66-.035.772-.237 1.757-.76 2.093-.943.337-.183 2.495-1.52 2.748-1.664.253-.144.829-.385.924-.498s.374-.773.248-1.025c-.127-.25-2.192.63-2.192.63l-2.823 1.867-2.655.804-2.402-.933" class="color2a2a38 svgShape"></path>
  <path fill="#2a3837" d="M172.443 178.768c-.003-.092.571-.604 2.243-1.547 1.673-.943 1.177-1.32 1.901-1.767.724-.447.67-.453 1.407.009 0 0 1.487-.73 1.906-1.075.419-.344 1.52-.742 2.173-.09s.387 2.525.333 2.66-.186.465-1.14.752c-.953.286-3.328 2.32-4.638 2.441s-1.68.32-3.208-.044c0 0-1.42-.351-.977-1.339z" class="color2a2a38 svgShape"></path>
  <path fill="#475655" d="M176.503 132.29s-1.52 6.567-1.412 10.53c.109 3.962 2.172 14.927 2.932 17.261s-1.13 13.412-1.62 15c-.932 3.017 5.919.038 5.861-.959 0 0 2.452-9.156 1.9-14.8 0 0-.008-8.686.86-11.671.87-2.986 1.589-10.965 1.589-10.965l-2.448-4.397s-6.957.38-7.662 0z" class="color474756 svgShape"></path>
  <path fill="#4c5e5c" d="M191.341 131.443s3.32 5.439 1.802 11.16c-1.52 5.722-2.437 9.43-1.484 15.293.954 5.863.686 15.62.333 19.824-.98 1.448-3.024 2.054-4.818 1.156l-1.448-15.929s-4.698-16.812-4.274-20.026c.424-3.214-1.836-9.465-1.766-9.995.07-.53 11.16-.67 11.655-1.483z" class="color4c4c5e svgShape"></path>
  <path fill="#b5fef8" d="m168.234 129.813 2.682 1.148-1.453 2.965s.806 2.327.723 2.702c-.084.375.329 1.75.434 2.057.106.307.391.693.133.783-.258.091-.89-.125-1.056-.578-.166-.453-.295-1.4-.332-1.508-.036-.107-.282-.449-.382-.36-.1.09-.643.596-.77.81s-1.3 4.632-1.377 4.702c-.077.069-.44.333-.61-.036s.544-3.916.544-3.916l-.24-.066-1.453 3.767s-.21.368-.598.135c-.389-.234 1.269-4.264 1.269-4.264l-.195-.107s-1.534 3.278-1.688 3.396c-.153.117-.713-.084-.495-.62.219-.536 1.747-3.508 1.747-3.508l-.168-.231s-1.815 2.204-1.947 2.324c-.263.24-.645-.1-.445-.363.088-.117 3.256-4.94 3.495-5.275.24-.334.85-.9.85-.9l1.332-3.057z" class="colorfed0b5 svgShape"></path>
  <path fill="#3deadb" d="M173.836 116.678c.293-.64.586-1.283.79-1.956.268-.882.379-1.803.542-2.711.344-1.915.924-3.78 1.504-5.637.128-.413.265-.84.553-1.16.326-.363 1.873-1.12 2.33-1.29a.03.03 0 0 0 .004 0v4.693h2.56c-.091.344-.186.687-.282 1.027a138.803 138.803 0 0 1-1.64 5.373c-.47 1.427-.967 2.847-1.574 4.22-1.023 2.319-2.348 4.489-3.67 6.651l-4.258 6.97c-.071.117-.15.24-.274.297-.104.048-.225.04-.34.03a9.778 9.778 0 0 1-3.372-.92l7.127-15.587z" class="colorea3d5b svgShape"></path>
  <path fill="#54fdee" d="M196.483 110.825c.587-.007-.524 8.236-1.735 10.118-4.146 5.65-1.347 12.062-1.563 17.482-.217 5.42-16.504 1.699-16.648-4.227-.145-5.926-.579-24.385 0-27.13s2.24-3.903 4.697-3.903 14.165 4.553 15.249 7.66z" class="colorfd546b svgShape"></path>
  <path fill="#a7f2eb" d="M181.644 104.037s-.065 2.437.65 3.087c.715.65 1.625 1.073 2.178 1.073s4.647-1.235 4.744-2.08-.552-1.885-.715-2.632c-.162-.748-.292-3.088-.292-3.088s-6.576 2.957-6.565 3.64z" class="colorf2c0a7 svgShape"></path>
  <path fill="#b5fef8" d="M179.983 105.19c-.3-.555-.38-1.199-.451-1.826a131.9 131.9 0 0 1-.557-6.204c-.028-.433-.053-.877.077-1.29.154-.484.525-.894.992-1.094.327-.14.688-.177 1.042-.214l2.69-.276c.345-.035.695-.07 1.04-.03.293.033.577.12.856.216.51.176 1.008.383 1.493.62.323.157.646.333.897.591.45.463.614 1.129.716 1.766.215 1.342.23 2.772-.358 3.998a8.757 8.757 0 0 1-.381.686c-.471.792-.952 1.596-1.63 2.22-.962.888-2.227 1.327-3.477 1.63-1.143.276-2.288.432-2.949-.793z" class="colorfed0b5 svgShape"></path>
  <path fill="#475655" d="M177.783 94.893s-.431 2.533 2.428 2.883c2.86.35 5.171-.483 5.171-.483s-.167 3.433.367 3.923c0 0 1.426-2.06 1.924-1.131.498.93-.322 2.882-.322 2.882s2.223-2.057 2.32-3.223c.097-1.165.454-3.665-.746-4.967 0 0-1.005-4.428-4.856-3.015s-5.553 3.55-6.286 3.131z" class="color474756 svgShape"></path>
  <path fill="#4c5e5c" d="m179.98 133.339-.001.305-1.575.915.001-.305z" class="color4c4c5e svgShape"></path>
  <path fill="#546664" d="m178.405 134.254-.001.305-1.417-.818.001-.305z" class="color545466 svgShape"></path>
  <path fill="#617371" d="m179.98 133.339-1.575.915-1.417-.818 1.575-.915z" class="color616173 svgShape"></path>
  <path fill="#b2c9c7" d="m179.697 127.89-.013 5.429-1.258.731.013-5.429z" class="colorc5d4dd svgShape"></path>
  <path fill="#dcf1ef" d="m178.439 128.621-.013 5.429-1.098-.634.012-5.429z" class="colordce8f1 svgShape"></path>
  <path fill="#546664" d="M178.016 130.85a.266.266 0 0 1-.133-.038.556.556 0 0 1-.255-.443v-.327c.001-.154.096-.223.19-.223.043 0 .087.013.132.039a.52.52 0 0 1 .182.19.514.514 0 0 1 .074.252l-.001.328c0 .154-.095.223-.189.223z" class="color545466 svgShape"></path>
  <path fill="#e7f7f6" d="m179.697 127.89-1.258.731-1.099-.634 1.258-.731z" class="colore7f1f7 svgShape"></path>
  <path fill="#25b8aa" d="M180.895 125.755c-.002.42-.149.714-.388.853l-2.552 1.483c.239-.139.387-.434.387-.853.003-.843-.59-1.87-1.324-2.294-.37-.213-.704-.234-.946-.093l2.552-1.483c.242-.14.577-.12.946.093.734.424 1.327 1.45 1.325 2.294z" class="color255bb8 svgShape"></path>
  <path fill="#3deadb" d="M177.018 124.944c.734.424 1.327 1.45 1.325 2.294-.003.844-.6 1.184-1.334.76-.734-.423-1.327-1.451-1.325-2.295s.6-1.183 1.334-.76z" class="colorea3d5b svgShape"></path>
  <path fill="#616161" d="m177.952 128.602-.931-.541 1.941-1.121.931.541z" class="color616161 svgShape"></path>
  <path fill="#e7f7f6" d="M180.19 126.878c-.009.582-.197 1.008-.508 1.221 0 0-.009.008-.025.017-.418.286-6.121 4.269-7.252 7.26l-6.334-9.276s6.12-.541 10.8-2.827c.352-.172.82-.123 1.336.172.819.483 1.524 1.458 1.827 2.458v.008c.098.328.156.656.156.967z" class="colore7f1f7 svgShape"></path>
  <path fill="#617371" d="M168.211 126.696c2.391 1.38 4.32 4.729 4.313 7.476-.008 2.748-1.95 3.854-4.34 2.474-2.392-1.38-4.326-4.726-4.319-7.473.008-2.747 1.955-3.857 4.346-2.477z" class="color616173 svgShape"></path>
  <path fill="#565656" d="M170.126 136.83c-.526 0-1.127-.186-1.738-.539-2.275-1.313-4.12-4.506-4.113-7.117.005-1.642.769-2.662 1.994-2.662.526 0 1.127.187 1.737.54 2.273 1.311 4.116 4.505 4.108 7.119-.004 1.665-.747 2.66-1.988 2.66z" class="color565656 svgShape"></path>
  <path fill="#dcf1ef" d="M172.118 134.171c-.008 1.664-.754 2.655-1.991 2.655-.525 0-1.131-.18-1.737-.532-2.279-1.32-4.122-4.507-4.114-7.121 0-1.64.77-2.663 1.991-2.663.525 0 1.131.188 1.737.54.697.402 1.353.975 1.926 1.655a10.12 10.12 0 0 1 1.746 3.073c.286.803.442 1.623.442 2.393z" class="colordce8f1 svgShape"></path>
  <path fill="#37c7b9" d="M180.19 126.878c-.009.582-.197 1.008-.508 1.221 0 0-.009.008-.025.017-.131.09-.82.565-1.72 1.27.007-.074.016-.148.016-.23a4.82 4.82 0 0 0-.214-1.327v-.009c-.417-1.368-1.376-2.696-2.499-3.359a3.278 3.278 0 0 0-.582-.263c.754-.27 1.5-.573 2.213-.925.352-.172.82-.123 1.336.172.819.483 1.524 1.458 1.827 2.458v.008c.098.328.156.656.156.967z" class="color3765c7 svgShape"></path>
  <path fill="#55dbce" d="m171.676 131.778-2.852 1.008-1.188-2.294 2.294-1.787a10.12 10.12 0 0 1 1.746 3.073z" class="color5576db svgShape"></path>
  <path fill="#25b8aa" d="M168.294 130.556c-.512-.295-.924-.057-.925.528-.002.585.407 1.297.92 1.593.508.294.92.056.922-.53.002-.585-.408-1.297-.917-1.59z" class="color255bb8 svgShape"></path>
  <path fill="#13ab9d" d="M168.293 130.817c-.386-.222-.696-.043-.697.398-.002.44.307.977.693 1.2.383.222.694.043.695-.398.001-.441-.307-.978-.69-1.2z" class="color1352ab svgShape"></path>
  <path fill="#29e2d2" d="m178.145 130.306-.001.327c0 .07-.025.12-.065.143l-.19.11c.04-.023.065-.073.066-.143v-.327c0-.07-.024-.15-.064-.22a.46.46 0 0 0-.159-.167c-.062-.036-.118-.039-.159-.015l.19-.11c.04-.024.096-.02.158.015a.457.457 0 0 1 .159.167.45.45 0 0 1 .065.22z" class="colore22951 svgShape"></path>
  <path fill="#54fdee" d="M177.732 130.03a.457.457 0 0 1 .158.166c.04.07.066.149.065.22v.327c0 .142-.101.2-.225.128a.492.492 0 0 1-.223-.387v-.327c.001-.142.102-.199.225-.128z" class="colorfd546b svgShape"></path>
  <path fill="#b5fef8" d="M185.726 132.832s-1.58.055-2.13.303c-.56.248-1.71.937-2.38 1.24-.68.285-2.672-.138-3.554-.689-.882-.56-1.755-2.324-1.176-2.59.367-.156 1.13.22 1.901.523.873.35 1.883.147 2.508-.55a.825.825 0 0 0 .073-.102c.046-.11-.725-.45-1.286-.615v-1.103c.276.056.58.102.9.102.423.018.974.202 1.498.431 1.12.487 2.36.533 3.545.212.083-.019.175-.037.267-.056.937-.174-.166 2.894-.166 2.894z" class="colorfed0b5 svgShape"></path>
  <path fill="#6cfff2" d="M196.722 110.874s2.574 16.685.416 20.342-13.005 2.129-13.005 2.129.412-2.804.076-3.288c-.336-.484 8.278-2.34 8.278-2.34s-.063-9.524-1.42-10.93c-1.358-1.407 4.152-8.17 5.655-5.913z" class="colorff6c85 svgShape"></path>
</svg>
